<svg width="17" height="23" viewBox="0 0 17 23" fill="none" xmlns="http://www.w3.org/2000/svg">
<path d="M15.3392 10.5333C15.0612 10.1708 14.7229 9.85667 14.4087 9.5425C13.5992 8.8175 12.6808 8.29792 11.9075 7.53667C10.1071 5.7725 9.70833 2.86042 10.8562 0.625C9.70833 0.902917 8.70541 1.53125 7.8475 2.22C4.71792 4.73333 3.48541 9.16792 4.95958 12.9742C5.00792 13.095 5.05625 13.2158 5.05625 13.3729C5.05625 13.6388 4.875 13.8804 4.63333 13.9771C4.35542 14.0979 4.06542 14.0254 3.83583 13.8321C3.76725 13.7746 3.7099 13.705 3.66667 13.6267C2.30125 11.8988 2.08375 9.42167 3.00208 7.44C0.984165 9.08333 -0.115418 11.8625 0.0416657 14.4846C0.114166 15.0888 0.186666 15.6929 0.392082 16.2971C0.561249 17.0221 0.887499 17.7471 1.25 18.3875C2.555 20.4779 4.81458 21.9763 7.24333 22.2783C9.82917 22.6046 12.5962 22.1333 14.5779 20.345C16.7892 18.3392 17.5625 15.125 16.4267 12.37L16.2696 12.0558C16.0158 11.5 15.3392 10.5333 15.3392 10.5333ZM11.5208 18.1458C11.1825 18.4358 10.6267 18.75 10.1917 18.8708C8.83833 19.3542 7.485 18.6775 6.6875 17.88C8.12541 17.5417 8.98333 16.4783 9.23708 15.4029C9.4425 14.4362 9.05583 13.6388 8.89875 12.7083C8.75375 11.8142 8.77792 11.0529 9.10417 10.2192C9.33375 10.6783 9.57541 11.1375 9.86541 11.5C10.7958 12.7083 12.2579 13.24 12.5721 14.8833C12.6204 15.0525 12.6446 15.2217 12.6446 15.4029C12.6808 16.3938 12.2458 17.4813 11.5208 18.1458Z" fill="#EA5345"/>
</svg>
