<svg width="18" height="23" viewBox="0 0 18 23" fill="none" xmlns="http://www.w3.org/2000/svg">
<path d="M15.8392 10.4464C15.5612 10.0839 15.2229 9.76975 14.9087 9.45559C14.0992 8.73059 13.1808 8.211 12.4075 7.44975C10.6071 5.68559 10.2083 2.7735 11.3562 0.538086C10.2083 0.816003 9.20541 1.44434 8.3475 2.13309C5.21792 4.64642 3.98541 9.081 5.45958 12.8873C5.50792 13.0081 5.55625 13.1289 5.55625 13.286C5.55625 13.5518 5.375 13.7935 5.13333 13.8902C4.85542 14.011 4.56542 13.9385 4.33583 13.7452C4.26725 13.6877 4.2099 13.6181 4.16667 13.5398C2.80125 11.8118 2.58375 9.33475 3.50208 7.35309C1.48417 8.99642 0.384582 11.7756 0.541666 14.3977C0.614166 15.0018 0.686666 15.606 0.892082 16.2102C1.06125 16.9352 1.3875 17.6602 1.75 18.3006C3.055 20.391 5.31458 21.8893 7.74333 22.1914C10.3292 22.5177 13.0962 22.0464 15.0779 20.2581C17.2892 18.2523 18.0625 15.0381 16.9267 12.2831L16.7696 11.9689C16.5158 11.4131 15.8392 10.4464 15.8392 10.4464ZM12.0208 18.0589C11.6825 18.3489 11.1267 18.6631 10.6917 18.7839C9.33833 19.2673 7.985 18.5906 7.1875 17.7931C8.62541 17.4548 9.48333 16.3914 9.73708 15.316C9.9425 14.3493 9.55583 13.5518 9.39875 12.6214C9.25375 11.7273 9.27792 10.966 9.60417 10.1323C9.83375 10.5914 10.0754 11.0506 10.3654 11.4131C11.2958 12.6214 12.7579 13.1531 13.0721 14.7964C13.1204 14.9656 13.1446 15.1348 13.1446 15.316C13.1808 16.3068 12.7458 17.3943 12.0208 18.0589Z" fill="#EA5345"/>
</svg>
