<svg width="21" height="21" viewBox="0 0 21 21" fill="none" xmlns="http://www.w3.org/2000/svg">
<path d="M9.76034 13.8848C9.7162 13.9348 9.67448 13.987 9.63534 14.041C9.59632 14.0993 9.56482 14.1623 9.54159 14.2285C9.51094 14.2873 9.48985 14.3506 9.47909 14.416C9.47412 14.4854 9.47412 14.555 9.47909 14.6243C9.47557 14.761 9.50411 14.8966 9.56242 15.0202C9.60921 15.1494 9.68385 15.2668 9.78105 15.3641C9.87826 15.4613 9.99566 15.5359 10.1249 15.5827C10.2496 15.6378 10.3844 15.6663 10.5208 15.6663C10.6571 15.6663 10.7919 15.6378 10.9166 15.5827C11.0459 15.5359 11.1633 15.4613 11.2605 15.3641C11.3577 15.2668 11.4323 15.1494 11.4791 15.0202C11.5253 14.8935 11.5466 14.7591 11.5416 14.6243C11.5424 14.4873 11.5161 14.3514 11.4643 14.2244C11.4124 14.0975 11.3361 13.9821 11.2395 13.8848C11.1427 13.7871 11.0275 13.7096 10.9005 13.6568C10.7736 13.6039 10.6374 13.5766 10.4999 13.5766C10.3624 13.5766 10.2263 13.6039 10.0993 13.6568C9.97239 13.7096 9.85718 13.7871 9.76034 13.8848ZM10.4999 0.0410156C8.4397 0.0410156 6.42575 0.651942 4.71273 1.79654C2.99972 2.94114 1.66459 4.568 0.876178 6.4714C0.0877653 8.37479 -0.118519 10.4692 0.28341 12.4899C0.685339 14.5105 1.67743 16.3666 3.13423 17.8234C4.59102 19.2802 6.4471 20.2723 8.46773 20.6742C10.4884 21.0761 12.5828 20.8698 14.4862 20.0814C16.3896 19.293 18.0165 17.9579 19.1611 16.2449C20.3057 14.5319 20.9166 12.5179 20.9166 10.4577C20.9166 9.08975 20.6472 7.7352 20.1237 6.4714C19.6002 5.20759 18.8329 4.05926 17.8656 3.09199C16.8983 2.12471 15.75 1.35742 14.4862 0.833937C13.2224 0.310451 11.8679 0.0410156 10.4999 0.0410156ZM10.4999 18.791C8.85175 18.791 7.24058 18.3023 5.87017 17.3866C4.49976 16.4709 3.43166 15.1694 2.80093 13.6467C2.1702 12.124 2.00517 10.4484 2.32671 8.83193C2.64826 7.21542 3.44193 5.73056 4.60737 4.56513C5.7728 3.39969 7.25766 2.60602 8.87417 2.28447C10.4907 1.96293 12.1662 2.12796 13.689 2.75869C15.2117 3.38942 16.5132 4.45752 17.4288 5.82793C18.3445 7.19834 18.8333 8.8095 18.8333 10.4577C18.8333 12.6678 17.9553 14.7874 16.3925 16.3502C14.8297 17.913 12.7101 18.791 10.4999 18.791ZM10.4999 5.24935C9.95103 5.249 9.41173 5.39322 8.93629 5.66752C8.46085 5.94181 8.06604 6.33649 7.79159 6.81185C7.71622 6.93041 7.66562 7.06299 7.64281 7.20162C7.62001 7.34024 7.62549 7.48205 7.65891 7.6185C7.69234 7.75496 7.75302 7.88324 7.8373 7.99563C7.92159 8.10803 8.02774 8.20221 8.14937 8.27252C8.271 8.34283 8.4056 8.3878 8.54506 8.40474C8.68453 8.42168 8.82598 8.41024 8.9609 8.3711C9.09583 8.33195 9.22144 8.26592 9.33018 8.17697C9.43893 8.08803 9.52855 7.978 9.59367 7.85352C9.68545 7.69455 9.8176 7.56266 9.97674 7.4712C10.1359 7.37974 10.3164 7.33195 10.4999 7.33268C10.7762 7.33268 11.0411 7.44243 11.2365 7.63778C11.4318 7.83313 11.5416 8.09808 11.5416 8.37435C11.5416 8.65062 11.4318 8.91557 11.2365 9.11092C11.0411 9.30627 10.7762 9.41602 10.4999 9.41602C10.2237 9.41602 9.9587 9.52576 9.76336 9.72111C9.568 9.91646 9.45826 10.1814 9.45826 10.4577V11.4993C9.45826 11.7756 9.568 12.0406 9.76336 12.2359C9.9587 12.4313 10.2237 12.541 10.4999 12.541C10.7762 12.541 11.0411 12.4313 11.2365 12.2359C11.4318 12.0406 11.5416 11.7756 11.5416 11.4993V11.3118C12.2305 11.0619 12.8097 10.5777 13.1778 9.944C13.5459 9.3103 13.6797 8.56736 13.5555 7.84507C13.4314 7.12277 13.0574 6.46708 12.4989 5.99259C11.9403 5.51811 11.2328 5.25503 10.4999 5.24935Z" fill="#EA5345"/>
</svg>
