<svg width="16" height="22" viewBox="0 0 16 22" fill="none" xmlns="http://www.w3.org/2000/svg">
<path d="M15 14C15 14.9193 14.8189 15.8295 14.4672 16.6788C14.1154 17.5281 13.5998 18.2997 12.9497 18.9497C12.2997 19.5998 11.5281 20.1154 10.6788 20.4672C9.82951 20.8189 8.91925 21 8 21C7.08075 21 6.17049 20.8189 5.32122 20.4672C4.47194 20.1154 3.70026 19.5998 3.05025 18.9497C2.40024 18.2997 1.88463 17.5281 1.53284 16.6788C1.18106 15.8295 1 14.9193 1 14C1 12.1435 1.7375 10.363 3.05025 9.05025C4.36301 7.7375 6.14348 7 8 7C9.85652 7 11.637 7.7375 12.9497 9.05025C14.2625 10.363 15 12.1435 15 14Z" stroke="#EA5345" stroke-width="1.5" stroke-linecap="round" stroke-linejoin="round"/>
<path d="M9 14C9 14.663 8.73661 15.2989 8.26777 15.7677C7.79893 16.2366 7.16304 16.5 6.5 16.5C5.83696 16.5 5.20107 16.2366 4.73223 15.7677C4.26339 15.2989 4 14.663 4 14M8.46 3.98398C8.47667 3.82598 8.48 3.66732 8.47 3.50798L8.348 1.52998C8.326 1.18998 8.657 0.928983 8.998 1.01698L13.611 2.21098C13.6891 2.22919 13.7617 2.26611 13.8224 2.31858C13.8831 2.37105 13.9301 2.43749 13.9595 2.51217C13.9888 2.58686 13.9995 2.66755 13.9907 2.7473C13.9819 2.82706 13.9539 2.90348 13.909 2.96998L12.779 4.62298C12.6883 4.75632 12.609 4.89532 12.541 5.03998M8.46 3.98398L7 3.60598M8.46 3.98398L12.541 5.03998M12.541 5.03998C12.4717 5.18865 12.414 5.34198 12.37 5.49998L11.66 7.99998M12.541 5.03998L14 5.41798M8.461 3.98398C8.44409 4.14616 8.414 4.30669 8.371 4.46398L7.517 6.99998M1 14H15M10.008 11H9.999" stroke="#EA5345" stroke-width="1.5" stroke-linecap="round" stroke-linejoin="round"/>
</svg>
