<svg width="60" height="60" viewBox="0 0 60 60" fill="none" xmlns="http://www.w3.org/2000/svg">
<g clip-path="url(#clip0_54_718)">
<path d="M3.33325 30.0003C3.33325 35.2745 4.89722 40.4302 7.8274 44.8155C10.7576 49.2008 14.9223 52.6188 19.795 54.6371C24.6677 56.6554 30.0295 57.1835 35.2023 56.1546C40.3752 55.1256 45.1267 52.5859 48.8561 48.8565C52.5855 45.1271 55.1253 40.3755 56.1542 35.2027C57.1831 30.0299 56.655 24.6681 54.6367 19.7954C52.6184 14.9227 49.2004 10.758 44.8151 7.82779C40.4298 4.89761 35.2741 3.33364 29.9999 3.33364C22.9275 3.33364 16.1447 6.14316 11.1437 11.1441C6.14277 16.1451 3.33325 22.9279 3.33325 30.0003ZM53.3333 30.0003C53.3333 34.6152 51.9648 39.1265 49.4009 42.9636C46.837 46.8008 43.1928 49.7915 38.9292 51.5575C34.6656 53.3235 29.974 53.7856 25.4478 52.8853C20.9216 51.985 16.764 49.7627 13.5008 46.4995C10.2375 43.2362 8.01525 39.0786 7.11493 34.5524C6.21461 30.0262 6.67669 25.3346 8.44273 21.071C10.2088 16.8074 13.1995 13.1632 17.0366 10.5993C20.8738 8.03545 25.385 6.66698 29.9999 6.66698C36.1883 6.66698 42.1232 9.12531 46.4991 13.5012C50.8749 17.877 53.3333 23.8119 53.3333 30.0003Z" fill="#01A6EE"/>
<path d="M13.7666 29.8669L26.4499 42.5502C26.5993 42.7247 26.7832 42.8664 26.99 42.9664C27.1968 43.0665 27.422 43.1227 27.6515 43.1316C27.881 43.1404 28.1099 43.1018 28.3238 43.018C28.5377 42.9342 28.7319 42.8071 28.8944 42.6447C29.0568 42.4822 29.1839 42.288 29.2677 42.0741C29.3515 41.8602 29.3901 41.6314 29.3813 41.4018C29.3724 41.1723 29.3162 40.9471 29.2161 40.7403C29.1161 40.5335 28.9744 40.3497 28.7999 40.2002L20.2999 31.6669L45.2999 31.6669C45.742 31.6669 46.1659 31.4913 46.4784 31.1788C46.791 30.8662 46.9666 30.4423 46.9666 30.0002C46.9666 29.5582 46.791 29.1343 46.4784 28.8217C46.1659 28.5092 45.742 28.3336 45.2999 28.3336L19.9999 28.3336L28.7999 19.5336C28.9744 19.3842 29.1161 19.2003 29.2161 18.9935C29.3162 18.7867 29.3724 18.5615 29.3813 18.332C29.3901 18.1025 29.3515 17.8736 29.2677 17.6597C29.1839 17.4458 29.0568 17.2516 28.8944 17.0892C28.7319 16.9267 28.5377 16.7996 28.3238 16.7158C28.1099 16.6321 27.881 16.5934 27.6515 16.6022C27.422 16.6111 27.1968 16.6673 26.99 16.7674C26.7832 16.8674 26.5993 17.0091 26.4499 17.1836L13.7666 29.8669Z" fill="#01A6EE"/>
</g>
<defs>
<clipPath id="clip0_54_718">
<rect width="60" height="60" fill="white" transform="matrix(0 -1 1 0 0 60)"/>
</clipPath>
</defs>
</svg>
