<svg width="21" height="21" viewBox="0 0 21 21" fill="none" xmlns="http://www.w3.org/2000/svg">
<path d="M10.5001 0.916748C10.8598 0.916748 11.2144 0.936234 11.5638 0.975206C11.6889 0.98905 11.8101 1.0274 11.9203 1.08806C12.0306 1.14872 12.1279 1.23051 12.2065 1.32875C12.2852 1.427 12.3437 1.53977 12.3788 1.66064C12.4139 1.78151 12.4248 1.90811 12.411 2.03321C12.3972 2.1583 12.3588 2.27944 12.2981 2.38972C12.2375 2.49999 12.1557 2.59724 12.0575 2.67591C11.9592 2.75458 11.8464 2.81312 11.7256 2.8482C11.6047 2.88329 11.4781 2.89422 11.353 2.88037C9.77371 2.7037 8.17854 3.02215 6.78815 3.79167C5.39775 4.5612 4.28084 5.74377 3.5919 7.17581C2.90297 8.60785 2.67606 10.2186 2.94256 11.7852C3.20906 13.3519 3.95581 14.797 5.0795 15.9207C6.20319 17.0444 7.6483 17.7911 9.21494 18.0576C10.7816 18.3241 12.3923 18.0972 13.8244 17.4083C15.2564 16.7193 16.439 15.6024 17.2085 14.212C17.978 12.8216 18.2965 11.2265 18.1198 9.64716C18.1059 9.52207 18.1169 9.39547 18.152 9.2746C18.187 9.15373 18.2456 9.04096 18.3243 8.94271C18.4831 8.7443 18.7143 8.61712 18.967 8.58916C19.2196 8.56121 19.473 8.63475 19.6714 8.79363C19.7697 8.8723 19.8514 8.96954 19.9121 9.07982C19.9728 9.19009 20.0111 9.31124 20.025 9.43633C20.0633 9.7858 20.0828 10.1404 20.0834 10.5001C20.0834 15.793 15.793 20.0834 10.5001 20.0834C5.20721 20.0834 0.916748 15.793 0.916748 10.5001C0.916748 5.20721 5.20721 0.916748 10.5001 0.916748ZM10.4694 6.54887C10.5326 6.7949 10.4955 7.05594 10.3663 7.27463C10.2371 7.49331 10.0263 7.65177 9.78037 7.71516C9.10462 7.89218 8.51637 8.30902 8.12537 8.88789C7.73437 9.46676 7.56734 10.1681 7.65546 10.8611C7.74358 11.5541 8.08082 12.1913 8.60425 12.6539C9.12768 13.1165 9.80154 13.3728 10.5001 13.3751C11.1377 13.3753 11.7572 13.1637 12.2614 12.7733C12.7655 12.383 13.1256 11.8362 13.285 11.2188C13.3529 10.9777 13.5126 10.7727 13.7298 10.6478C13.947 10.523 14.2045 10.4881 14.4471 10.5508C14.6897 10.6134 14.8981 10.7686 15.0276 10.983C15.1572 11.1975 15.1977 11.4541 15.1403 11.698C14.8463 12.8249 14.1521 13.8063 13.1874 14.4587C12.2227 15.1112 11.0534 15.3901 9.89802 15.2434C8.74265 15.0966 7.68022 14.5343 6.90921 13.6614C6.1382 12.7885 5.71136 11.6647 5.70841 10.5001C5.70825 9.43766 6.06118 8.40532 6.71171 7.56535C7.36224 6.72538 8.27348 6.12544 9.30216 5.85983C9.42405 5.82842 9.55093 5.82132 9.67556 5.83895C9.80019 5.85657 9.92013 5.89858 10.0285 5.96257C10.1369 6.02655 10.2316 6.11126 10.3073 6.21186C10.3829 6.31246 10.438 6.42698 10.4694 6.54887ZM16.7331 1.03846C16.908 1.11098 17.0575 1.2337 17.1628 1.39113C17.268 1.54856 17.3242 1.73364 17.3244 1.923V3.67675H19.0772C19.2667 3.67679 19.4519 3.73302 19.6095 3.83832C19.767 3.94363 19.8898 4.09328 19.9624 4.26837C20.0349 4.44346 20.0539 4.63612 20.0169 4.82199C19.9799 5.00786 19.8887 5.1786 19.7547 5.31262L16.3651 8.69841C16.1854 8.87815 15.9417 8.97915 15.6875 8.97921H13.3751L11.6232 10.732C11.4434 10.9118 11.1995 11.0128 10.9452 11.0128C10.6909 11.0128 10.447 10.9118 10.2672 10.732C10.0874 10.5522 9.98636 10.3083 9.98636 10.054C9.98636 9.79967 10.0874 9.55578 10.2672 9.37596L12.02 7.62508V5.31166C12.0201 5.05752 12.1211 4.8138 12.3008 4.63412L15.6885 1.24546C15.8225 1.11135 15.9933 1.02002 16.1792 0.982999C16.3652 0.945981 16.5579 0.964948 16.7331 1.0375M15.4077 4.23546L13.9367 5.70841V7.0635H15.2917L16.7637 5.59246H16.366C16.1119 5.59246 15.8681 5.49149 15.6884 5.31177C15.5087 5.13204 15.4077 4.88829 15.4077 4.63412V4.23546Z" fill="#EA5345"/>
</svg>
