<svg width="18" height="17" viewBox="0 0 18 17" fill="none" xmlns="http://www.w3.org/2000/svg">
<path d="M17.1873 6.37533C17.0495 5.95632 16.6884 5.65171 16.2518 5.58812L11.8292 4.94549L9.85305 0.95243C9.46175 0.162911 8.1685 0.162911 7.77721 0.95243L5.80101 4.94549L1.38894 5.58812C0.953599 5.65171 0.591253 5.95739 0.454664 6.37657C0.318075 6.79451 0.431577 7.25419 0.747562 7.56201L3.94755 10.681L3.19267 15.0815C3.1186 15.5156 3.29693 15.9556 3.65341 16.2149C3.85483 16.3607 4.09338 16.4348 4.33299 16.4348C4.51825 16.4348 4.7035 16.3908 4.87473 16.3016L8.81575 14.2234L12.7694 16.3016C13.1584 16.5089 13.6307 16.4741 13.9886 16.2137C14.344 15.9543 14.5223 15.5156 14.4482 15.0814L13.6946 10.6808L16.8946 7.56183C17.2104 7.25526 17.3228 6.79451 17.1873 6.37533Z" fill="#FBBC05"/>
</svg>
