<svg width="22" height="23" viewBox="0 0 22 23" fill="none" xmlns="http://www.w3.org/2000/svg">
<path d="M0 11.5C0 8.58262 1.15893 5.78473 3.22183 3.72183C5.28473 1.65893 8.08262 0.5 11 0.5C13.9174 0.5 16.7153 1.65893 18.7782 3.72183C20.8411 5.78473 22 8.58262 22 11.5C22 14.4174 20.8411 17.2153 18.7782 19.2782C16.7153 21.3411 13.9174 22.5 11 22.5C8.08262 22.5 5.28473 21.3411 3.22183 19.2782C1.15893 17.2153 0 14.4174 0 11.5ZM5.8212 11.2844C5.92338 11.3868 6.04477 11.4681 6.17841 11.5236C6.31205 11.579 6.45531 11.6076 6.6 11.6076C6.74469 11.6076 6.88796 11.579 7.02159 11.5236C7.15523 11.4681 7.27662 11.3868 7.3788 11.2844L9.9 8.7632V17C9.9 17.2917 10.0159 17.5715 10.2222 17.7778C10.4285 17.9841 10.7083 18.1 11 18.1C11.2917 18.1 11.5715 17.9841 11.7778 17.7778C11.9841 17.5715 12.1 17.2917 12.1 17V8.7632L14.6212 11.2844C14.8275 11.491 15.1073 11.6071 15.3992 11.6073C15.6911 11.6075 15.9712 11.4918 16.1777 11.2855C16.3843 11.0792 16.5004 10.7994 16.5006 10.5075C16.5008 10.2156 16.3851 9.93555 16.1788 9.729L11.7788 5.329C11.6766 5.22656 11.5552 5.14529 11.4216 5.08983C11.288 5.03438 11.1447 5.00583 11 5.00583C10.8553 5.00583 10.712 5.03438 10.5784 5.08983C10.4448 5.14529 10.3234 5.22656 10.2212 5.329L5.8212 9.729C5.61498 9.93528 5.49914 10.215 5.49914 10.5067C5.49914 10.7984 5.61498 11.0781 5.8212 11.2844Z" fill="white"/>
</svg>
