<svg width="23" height="24" viewBox="0 0 23 24" fill="none" xmlns="http://www.w3.org/2000/svg">
<g clip-path="url(#clip0_4_408)">
<path d="M4.07662 19.9235C3.07376 18.9549 2.27385 17.7963 1.72356 16.5152C1.17326 15.2342 0.883605 13.8564 0.87149 12.4622C0.859375 11.068 1.12504 9.68539 1.65299 8.39498C2.18094 7.10457 2.9606 5.93222 3.94647 4.94635C4.93235 3.96048 6.10469 3.18082 7.3951 2.65287C8.68551 2.12492 10.0681 1.85925 11.4623 1.87137C12.8565 1.88348 14.2343 2.17314 15.5154 2.72343C16.7964 3.27373 17.955 4.07364 18.9236 5.0765C20.8363 7.05682 21.8946 9.70914 21.8707 12.4622C21.8468 15.2153 20.7425 17.8488 18.7957 19.7956C16.8489 21.7424 14.2154 22.8467 11.4623 22.8706C8.70927 22.8945 6.05694 21.8362 4.07662 19.9235ZM17.4431 18.443C19.0193 16.8668 19.9048 14.7291 19.9048 12.5C19.9048 10.2709 19.0193 8.13318 17.4431 6.557C15.8669 4.98082 13.7292 4.09533 11.5001 4.09533C9.27106 4.09533 7.1333 4.98082 5.55712 6.557C3.98094 8.13318 3.09545 10.2709 3.09545 12.5C3.09545 14.7291 3.98094 16.8668 5.55712 18.443C7.1333 20.0192 9.27106 20.9047 11.5001 20.9047C13.7292 20.9047 15.8669 20.0192 17.4431 18.443ZM10.4501 7.25H12.5501V13.55H10.4501V7.25ZM10.4501 15.65H12.5501V17.75H10.4501V15.65Z" fill="#EA5345"/>
</g>
<defs>
<clipPath id="clip0_4_408">
<rect width="21" height="21" fill="white" transform="translate(1 2)"/>
</clipPath>
</defs>
</svg>
